<svg width="100" height="30" viewBox="0 0 100 30" fill="none" xmlns="http://www.w3.org/2000/svg"><path fill-rule="evenodd" clip-rule="evenodd" d="M24.4625 5.11144C24.1727 4.96025 23.8273 4.96025 23.5375 5.11144L18.5375 7.71977C18.2071 7.89209 18 8.23379 18 8.60638V8.98016C18 9.53244 18.4477 9.98016 19 9.98016V13.3073L20 13.8289V9.98016H22V14.8743C22.6169 15.2304 23 15.8898 23 16.6064V16.9802L22.9999 17.0002H30V16.0002C30 15.4479 29.5523 15.0002 29 15.0002V9.98016C29.5523 9.98016 30 9.53244 30 8.98016V8.60638C30 8.23379 29.7929 7.89209 29.4625 7.71977L24.4625 5.11144ZM28 9.98016H26V15.0002H28V9.98016ZM25 9.98016H23V15.0002H25V9.98016Z" fill="#FF646C"/><path fill-rule="evenodd" clip-rule="evenodd" d="M15.5375 13.1114C15.8273 12.9603 16.1727 12.9603 16.4625 13.1114L21.4625 15.7198C21.7929 15.8921 22 16.2338 22 16.6064V16.9802C22 17.5324 21.5523 17.9802 21 17.9802V23.0002C21.5523 23.0002 22 23.4479 22 24.0002V25.0002H10V24.0002C10 23.4479 10.4477 23.0002 11 23.0002L11 17.9802C10.4477 17.9802 10 17.5324 10 16.9802V16.6064C10 16.2338 10.2071 15.8921 10.5375 15.7198L15.5375 13.1114ZM18 23.0002V17.9802H20V23.0002H18ZM15 17.9802H17V23.0002H15V17.9802ZM12 17.9802H14V23.0002H12V17.9802Z" fill="#FF646C"/><path d="M41.97 10.36C42.37 10.4867 42.6834 10.7 42.91 11C43.1367 11.2933 43.25 11.6567 43.25 12.09C43.25 12.7033 43.01 13.1767 42.53 13.51C42.0567 13.8367 41.3634 14 40.45 14H36.83V7H40.25C41.1034 7 41.7567 7.16333 42.21 7.49C42.67 7.81667 42.9 8.26 42.9 8.82C42.9 9.16 42.8167 9.46333 42.65 9.73C42.49 9.99667 42.2634 10.2067 41.97 10.36ZM38.44 8.22V9.87H40.05C40.45 9.87 40.7534 9.8 40.96 9.66C41.1667 9.52 41.27 9.31333 41.27 9.04C41.27 8.76667 41.1667 8.56333 40.96 8.43C40.7534 8.29 40.45 8.22 40.05 8.22H38.44ZM40.33 12.78C40.7567 12.78 41.0767 12.71 41.29 12.57C41.51 12.43 41.62 12.2133 41.62 11.92C41.62 11.34 41.19 11.05 40.33 11.05H38.44V12.78H40.33Z" fill="#FF646C"/><path d="M49.0865 12.5H45.8365L45.2165 14H43.5565L46.6765 7H48.2765L51.4065 14H49.7065L49.0865 12.5ZM48.5765 11.27L47.4665 8.59L46.3565 11.27H48.5765Z" fill="#FF646C"/><path d="M58.5528 7V14H57.2228L53.7328 9.75V14H52.1328V7H53.4728L56.9528 11.25V7H58.5528Z" fill="#FF646C"/><path d="M62.7589 11.25L61.8189 12.23V14H60.2089V7H61.8189V10.27L64.9189 7H66.7189L63.8189 10.12L66.8889 14H64.9989L62.7589 11.25Z" fill="#FF646C"/><path d="M38.28 18.32H36.04V17H42.14V18.32H39.9V24H38.28V18.32Z" fill="#FF646C"/><path d="M47.4717 24L46.1217 22.05H46.0417H44.6317V24H43.0117V17H46.0417C46.6617 17 47.1983 17.1033 47.6517 17.31C48.1117 17.5167 48.465 17.81 48.7117 18.19C48.9583 18.57 49.0817 19.02 49.0817 19.54C49.0817 20.06 48.955 20.51 48.7017 20.89C48.455 21.2633 48.1017 21.55 47.6417 21.75L49.2117 24H47.4717ZM47.4417 19.54C47.4417 19.1467 47.315 18.8467 47.0617 18.64C46.8083 18.4267 46.4383 18.32 45.9517 18.32H44.6317V20.76H45.9517C46.4383 20.76 46.8083 20.6533 47.0617 20.44C47.315 20.2267 47.4417 19.9267 47.4417 19.54Z" fill="#FF646C"/><path d="M54.9752 22.5H51.7252L51.1052 24H49.4452L52.5652 17H54.1652L57.2952 24H55.5952L54.9752 22.5ZM54.4652 21.27L53.3552 18.59L52.2452 21.27H54.4652Z" fill="#FF646C"/><path d="M64.4414 17V24H63.1114L59.6214 19.75V24H58.0214V17H59.3614L62.8414 21.25V17H64.4414Z" fill="#FF646C"/><path d="M68.3976 24.12C67.8443 24.12 67.3076 24.0467 66.7876 23.9C66.2743 23.7467 65.861 23.55 65.5476 23.31L66.0976 22.09C66.3976 22.31 66.7543 22.4867 67.1676 22.62C67.5809 22.7533 67.9943 22.82 68.4076 22.82C68.8676 22.82 69.2076 22.7533 69.4276 22.62C69.6476 22.48 69.7576 22.2967 69.7576 22.07C69.7576 21.9033 69.691 21.7667 69.5576 21.66C69.431 21.5467 69.2643 21.4567 69.0576 21.39C68.8576 21.3233 68.5843 21.25 68.2376 21.17C67.7043 21.0433 67.2676 20.9167 66.9276 20.79C66.5876 20.6633 66.2943 20.46 66.0476 20.18C65.8076 19.9 65.6876 19.5267 65.6876 19.06C65.6876 18.6533 65.7976 18.2867 66.0176 17.96C66.2376 17.6267 66.5676 17.3633 67.0076 17.17C67.4543 16.9767 67.9976 16.88 68.6376 16.88C69.0843 16.88 69.521 16.9333 69.9476 17.04C70.3743 17.1467 70.7476 17.3 71.0676 17.5L70.5676 18.73C69.9209 18.3633 69.2743 18.18 68.6276 18.18C68.1743 18.18 67.8376 18.2533 67.6176 18.4C67.4043 18.5467 67.2976 18.74 67.2976 18.98C67.2976 19.22 67.4209 19.4 67.6676 19.52C67.9209 19.6333 68.3043 19.7467 68.8176 19.86C69.3509 19.9867 69.7876 20.1133 70.1276 20.24C70.4676 20.3667 70.7576 20.5667 70.9976 20.84C71.2443 21.1133 71.3676 21.4833 71.3676 21.95C71.3676 22.35 71.2543 22.7167 71.0276 23.05C70.8076 23.3767 70.4743 23.6367 70.0276 23.83C69.5809 24.0233 69.0376 24.12 68.3976 24.12Z" fill="#FF646C"/><path d="M74.0946 18.3V20.15H77.3346V21.45H74.0946V24H72.4746V17H77.7646V18.3H74.0946Z" fill="#FF646C"/><path d="M84.2813 22.7V24H78.8613V17H84.1513V18.3H80.4713V19.82H83.7213V21.08H80.4713V22.7H84.2813Z" fill="#FF646C"/><path d="M90.0303 24L88.6803 22.05H88.6003H87.1903V24H85.5703V17H88.6003C89.2203 17 89.7569 17.1033 90.2103 17.31C90.6703 17.5167 91.0236 17.81 91.2703 18.19C91.5169 18.57 91.6403 19.02 91.6403 19.54C91.6403 20.06 91.5136 20.51 91.2603 20.89C91.0136 21.2633 90.6603 21.55 90.2003 21.75L91.7703 24H90.0303ZM90.0003 19.54C90.0003 19.1467 89.8736 18.8467 89.6203 18.64C89.3669 18.4267 88.9969 18.32 88.5103 18.32H87.1903V20.76H88.5103C88.9969 20.76 89.3669 20.6533 89.6203 20.44C89.8736 20.2267 90.0003 19.9267 90.0003 19.54Z" fill="#FF646C"/></svg>