<svg width="100" height="31" viewBox="0 0 100 31" fill="none" xmlns="http://www.w3.org/2000/svg"><path d="M6.47744 14.6774H12.6872V17.6335H6.47744V14.6774ZM6.74494 20.1901H13.738V23.246H3V9.26466H13.4896V12.3206H6.74494V20.1901Z" fill="white"/><path d="M15.426 19.0117V16.0956H21.0052V19.0117H15.426Z" fill="white"/><path d="M25.5931 23.246L21.9054 12.4205H25.3447L28.268 21.4684H26.6248L29.6628 12.4205H32.7581L35.6815 21.4684H34.0765L37.0954 12.4205H40.2862L36.5986 23.246H33.0829L30.599 15.756H31.669L29.1087 23.246H25.5931Z" fill="white"/><path d="M47.7474 23.246V21.2287L47.499 20.7294V17.0143C47.499 16.4151 47.3207 15.9557 46.964 15.6362C46.6201 15.3033 46.066 15.1368 45.3017 15.1368C44.805 15.1368 44.3018 15.2234 43.7923 15.3965C43.2828 15.5563 42.8497 15.7826 42.493 16.0756L41.2702 13.499C41.8561 13.0995 42.5567 12.7933 43.372 12.5802C44.1999 12.3539 45.0215 12.2407 45.8367 12.2407C47.5181 12.2407 48.8174 12.6468 49.7345 13.4591C50.6644 14.258 51.1293 15.5163 51.1293 17.234V23.246H47.7474ZM44.6903 23.4258C43.8624 23.4258 43.1618 23.2793 42.5886 22.9864C42.0154 22.6934 41.5759 22.294 41.2702 21.788C40.9772 21.282 40.8307 20.7161 40.8307 20.0902C40.8307 19.4244 40.99 18.8519 41.3084 18.3725C41.6396 17.8798 42.1427 17.507 42.8179 17.254C43.493 16.9877 44.3655 16.8545 45.4355 16.8545H47.8812V18.8319H45.9323C45.3463 18.8319 44.9323 18.9318 44.6903 19.1315C44.461 19.3312 44.3464 19.5976 44.3464 19.9304C44.3464 20.2633 44.4674 20.5296 44.7094 20.7294C44.9515 20.9291 45.2826 21.029 45.703 21.029C46.0979 21.029 46.4545 20.9291 46.773 20.7294C47.1041 20.5163 47.3462 20.1968 47.499 19.7707L47.9958 21.1688C47.8047 21.9145 47.429 22.4804 46.8685 22.8665C46.3208 23.2394 45.5947 23.4258 44.6903 23.4258Z" fill="white"/><path d="M53.8029 23.246V8.42578H57.4332V23.246H53.8029Z" fill="white"/><path d="M60.1746 23.246V8.42578H63.8049V23.246H60.1746Z" fill="white"/><path d="M71.9726 23.4258C70.7498 23.4258 69.6798 23.1861 68.7627 22.7067C67.8583 22.2141 67.1513 21.5483 66.6418 20.7094C66.145 19.8572 65.8966 18.8918 65.8966 17.8133C65.8966 16.7347 66.1387 15.776 66.6227 14.9371C67.1195 14.0849 67.801 13.4258 68.6671 12.9597C69.5333 12.4804 70.5078 12.2407 71.5905 12.2407C72.6095 12.2407 73.5394 12.4604 74.3801 12.8998C75.2208 13.3259 75.8895 13.9584 76.3863 14.7973C76.8831 15.6362 77.1315 16.6548 77.1315 17.8532C77.1315 17.9864 77.1251 18.1395 77.1123 18.3126C77.0996 18.4857 77.0869 18.6455 77.0741 18.792H68.8773V16.7946H75.1443L73.7687 17.3539C73.7814 16.8612 73.6922 16.4351 73.5012 16.0756C73.3228 15.7161 73.0681 15.4364 72.7369 15.2367C72.4184 15.037 72.0427 14.9371 71.6096 14.9371C71.1765 14.9371 70.7944 15.037 70.4632 15.2367C70.1447 15.4364 69.8963 15.7227 69.718 16.0956C69.5397 16.4551 69.4505 16.8812 69.4505 17.3738V17.9531C69.4505 18.4857 69.5524 18.9451 69.7562 19.3312C69.9728 19.7174 70.2785 20.017 70.6733 20.23C71.0682 20.4298 71.5395 20.5296 72.0873 20.5296C72.5968 20.5296 73.0299 20.4564 73.3865 20.3099C73.7559 20.1501 74.1189 19.9105 74.4756 19.5909L76.3863 21.6681C75.8895 22.2407 75.2781 22.6801 74.552 22.9864C73.826 23.2793 72.9662 23.4258 71.9726 23.4258Z" fill="white"/><path d="M83.8112 23.4258C82.4865 23.4258 81.4547 23.0862 80.7159 22.4071C79.9771 21.7147 79.6077 20.6761 79.6077 19.2913V10.0037H83.238V19.2513C83.238 19.6375 83.3399 19.9438 83.5437 20.1701C83.7475 20.3832 84.0087 20.4897 84.3271 20.4897C84.7602 20.4897 85.1296 20.3765 85.4353 20.1501L86.3333 22.8066C86.0276 23.0197 85.6519 23.1728 85.206 23.266C84.7602 23.3725 84.2953 23.4258 83.8112 23.4258ZM78.0983 15.6561V12.8199H85.6073V15.6561H78.0983Z" fill="white"/><path d="M91.8794 23.4258C91.0005 23.4258 90.1407 23.3193 89.3 23.1062C88.472 22.8932 87.8033 22.6268 87.2937 22.3073L88.3828 19.7107C88.8669 20.017 89.4337 20.2633 90.0833 20.4497C90.733 20.6229 91.3699 20.7094 91.994 20.7094C92.6054 20.7094 93.0258 20.6428 93.2551 20.5097C93.4971 20.3765 93.6181 20.1968 93.6181 19.9704C93.6181 19.7573 93.5035 19.6042 93.2742 19.511C93.0576 19.4045 92.7647 19.3246 92.3953 19.2713C92.0386 19.2181 91.6437 19.1581 91.2106 19.0916C90.7775 19.025 90.3381 18.9384 89.8923 18.8319C89.4592 18.7121 89.0579 18.539 88.6885 18.3126C88.3319 18.0729 88.0453 17.7533 87.8287 17.3539C87.6122 16.9544 87.5039 16.4484 87.5039 15.8359C87.5039 15.1435 87.695 14.531 88.0771 13.9984C88.472 13.4524 89.0452 13.0263 89.7967 12.7201C90.5483 12.4005 91.4654 12.2407 92.5481 12.2407C93.2742 12.2407 94.0066 12.3206 94.7454 12.4804C95.4969 12.6268 96.1275 12.8532 96.637 13.1595L95.5479 15.736C95.0384 15.4298 94.5289 15.2234 94.0193 15.1169C93.5098 14.997 93.0258 14.9371 92.5672 14.9371C91.9558 14.9371 91.5227 15.0103 91.268 15.1568C91.0259 15.3033 90.9049 15.483 90.9049 15.6961C90.9049 15.9091 91.0132 16.0756 91.2297 16.1954C91.4463 16.3019 91.7329 16.3885 92.0896 16.4551C92.459 16.5083 92.8602 16.5683 93.2933 16.6348C93.7264 16.6881 94.1595 16.7746 94.5925 16.8945C95.0384 17.0143 95.4396 17.1941 95.7963 17.4338C96.1657 17.6601 96.4586 17.9731 96.6752 18.3725C96.8917 18.7587 97 19.258 97 19.8705C97 20.5363 96.8026 21.1355 96.4077 21.6681C96.0256 22.2007 95.4523 22.6268 94.6881 22.9464C93.9365 23.266 93.0003 23.4258 91.8794 23.4258Z" fill="white"/></svg>