<svg width="168" height="48" viewBox="0 0 168 48" fill="none" xmlns="http://www.w3.org/2000/svg"><path d="M64.7628 46.1528V43.1863C64.781 42.9368 64.7431 42.6865 64.6517 42.452C64.5603 42.2176 64.4175 42.0043 64.2328 41.8266C64.0481 41.6488 63.8258 41.5106 63.5806 41.421C63.3354 41.3315 63.073 41.2928 62.8108 41.3075C62.4677 41.286 62.1248 41.3527 61.818 41.5006C61.5112 41.6484 61.2517 41.872 61.0665 42.148C60.8978 41.8803 60.6563 41.6609 60.3676 41.513C60.0788 41.365 59.7536 41.294 59.426 41.3075C59.1405 41.2937 58.8562 41.3513 58.6012 41.4744C58.3462 41.5976 58.1295 41.782 57.9724 42.0095V41.4261H56.8926V46.1528H57.9828V43.5521C57.9596 43.3905 57.9742 43.226 58.0255 43.0704C58.0768 42.9147 58.1636 42.7718 58.2797 42.6518C58.3958 42.5318 58.5382 42.4377 58.6969 42.3763C58.8556 42.3148 59.0265 42.2875 59.1976 42.2963C59.914 42.2963 60.2774 42.7413 60.2774 43.5423V46.1726H61.3676V43.5521C61.3454 43.3907 61.3606 43.2265 61.4123 43.0713C61.464 42.916 61.5508 42.7735 61.6667 42.6537C61.7826 42.5339 61.9246 42.4398 62.0829 42.3781C62.2411 42.3163 62.4116 42.2884 62.5824 42.2963C63.3196 42.2963 63.6726 42.7413 63.6726 43.5423V46.1726L64.7628 46.1528ZM80.8927 41.4261H79.1172V39.9923H78.027V41.4261H77.0407V42.3655H78.0478V44.541C78.0478 45.6386 78.4943 46.2913 79.7714 46.2913C80.2485 46.2928 80.7164 46.166 81.1211 45.9254L80.8097 45.0453C80.5201 45.2098 80.1914 45.3017 79.8544 45.3123C79.3353 45.3123 79.138 44.9959 79.138 44.5212V42.3655H80.9031L80.8927 41.4261ZM90.1024 41.3075C89.8391 41.3001 89.5786 41.3605 89.3484 41.4823C89.1181 41.6041 88.9266 41.7829 88.7941 41.9997V41.4261H87.7247V46.1528H88.8045V43.5027C88.8045 42.7215 89.1575 42.2864 89.8428 42.2864C90.0738 42.2834 90.3031 42.3237 90.5177 42.4051L90.8499 41.4162C90.6033 41.3322 90.3435 41.2887 90.0816 41.2877L90.1024 41.3075ZM76.1789 41.8019C75.5676 41.4558 74.8649 41.2842 74.1542 41.3075C72.8979 41.3075 72.0776 41.881 72.0776 42.8204C72.0776 43.5917 72.6798 44.0663 73.7908 44.2147L74.3099 44.2839C74.9018 44.363 75.1821 44.5113 75.1821 44.7783C75.1821 45.1442 74.7876 45.3519 74.0504 45.3519C73.4574 45.3682 72.8759 45.194 72.3995 44.8574L71.8803 45.6584C72.5093 46.0767 73.2627 46.2916 74.0296 46.2715C75.4624 46.2715 76.2931 45.6287 76.2931 44.7289C76.2931 43.829 75.639 43.4631 74.5591 43.3148L74.04 43.2456C73.5728 43.1863 73.199 43.0973 73.199 42.7808C73.199 42.4644 73.552 42.2271 74.1438 42.2271C74.6908 42.2331 75.2271 42.3727 75.7013 42.6325L76.1789 41.8019ZM105.101 41.3075C104.837 41.3001 104.577 41.3605 104.347 41.4823C104.116 41.6041 103.925 41.7829 103.792 41.9997V41.4261H102.723V46.1528H103.803V43.5027C103.803 42.7215 104.156 42.2864 104.841 42.2864C105.072 42.2834 105.301 42.3237 105.516 42.4051L105.848 41.4162C105.601 41.3322 105.342 41.2887 105.08 41.2877L105.101 41.3075ZM91.1874 43.7796C91.1746 44.1117 91.2347 44.4428 91.3639 44.7516C91.4931 45.0603 91.6885 45.34 91.9378 45.5727C92.187 45.8054 92.4845 45.986 92.8112 46.1029C93.1379 46.2198 93.4866 46.2705 93.835 46.2517C94.4834 46.2831 95.1206 46.082 95.6209 45.6881L95.1018 44.8574C94.7285 45.1285 94.2733 45.2777 93.8039 45.2826C93.4048 45.2519 93.0324 45.0791 92.7609 44.7988C92.4894 44.5185 92.3386 44.1511 92.3386 43.7697C92.3386 43.3883 92.4894 43.0209 92.7609 42.7406C93.0324 42.4602 93.4048 42.2875 93.8039 42.2568C94.2733 42.2617 94.7285 42.4109 95.1018 42.682L95.6209 41.8513C95.1206 41.4574 94.4834 41.2563 93.835 41.2877C93.4866 41.2689 93.1379 41.3196 92.8112 41.4365C92.4845 41.5534 92.187 41.734 91.9378 41.9667C91.6885 42.1994 91.4931 42.479 91.3639 42.7878C91.2347 43.0966 91.1746 43.4276 91.1874 43.7598V43.7796ZM101.3 43.7796V41.4261H100.221V41.9997C100.037 41.7749 99.8003 41.595 99.5295 41.4746C99.2587 41.3543 98.9617 41.297 98.6631 41.3075C97.9747 41.3075 97.3144 41.5679 96.8276 42.0315C96.3408 42.4951 96.0674 43.1239 96.0674 43.7796C96.0674 44.4352 96.3408 45.064 96.8276 45.5276C97.3144 45.9913 97.9747 46.2517 98.6631 46.2517C98.9617 46.2622 99.2587 46.2049 99.5295 46.0845C99.8003 45.9642 100.037 45.7842 100.221 45.5595V46.133H101.3V43.7796ZM97.2822 43.7796C97.2994 43.5014 97.4017 43.234 97.5764 43.0104C97.7512 42.7869 97.9907 42.6168 98.2657 42.5213C98.5406 42.4258 98.8388 42.4089 99.1237 42.4728C99.4086 42.5366 99.6676 42.6785 99.8689 42.8808C100.07 43.083 100.205 43.337 100.257 43.6113C100.308 43.8857 100.275 44.1684 100.16 44.4247C100.045 44.681 99.8537 44.8998 99.6099 45.054C99.3662 45.2082 99.0803 45.2911 98.7877 45.2925C98.5821 45.295 98.3783 45.2569 98.1889 45.1807C97.9996 45.1045 97.8288 44.9918 97.6874 44.8497C97.546 44.7076 97.437 44.5392 97.3673 44.355C97.2975 44.1709 97.2685 43.9749 97.2822 43.7796V43.7796ZM84.2516 41.3075C83.5632 41.3166 82.9068 41.5859 82.4268 42.056C81.9468 42.5261 81.6826 43.1585 81.6922 43.8142C81.7018 44.4698 81.9846 45.095 82.4782 45.5521C82.9718 46.0092 83.6358 46.2609 84.3243 46.2517C85.0712 46.2882 85.8057 46.0592 86.3853 45.609L85.8661 44.8475C85.4562 45.1607 84.9483 45.3346 84.4229 45.342C84.066 45.3712 83.7111 45.2667 83.4339 45.0506C83.1566 44.8346 82.9787 44.524 82.9382 44.185H86.6241C86.6241 44.0565 86.6241 43.9279 86.6241 43.7895C86.6241 42.3062 85.6585 41.3173 84.2672 41.3173L84.2516 41.3075ZM84.2516 42.2271C84.4132 42.2238 84.5739 42.2509 84.7245 42.3068C84.8751 42.3626 85.0126 42.4462 85.1293 42.5527C85.246 42.6593 85.3394 42.7866 85.4044 42.9276C85.4694 43.0685 85.5046 43.2203 85.5079 43.3742H82.9122C82.931 43.0568 83.0795 42.759 83.326 42.5446C83.5724 42.3302 83.8972 42.2162 84.2308 42.2271H84.2516ZM111.304 43.7895V39.5275H110.266V41.9997C110.083 41.7749 109.846 41.595 109.575 41.4746C109.304 41.3543 109.007 41.297 108.709 41.3075C108.02 41.3075 107.36 41.5679 106.873 42.0315C106.386 42.4951 106.113 43.1239 106.113 43.7796C106.113 44.4352 106.386 45.064 106.873 45.5276C107.36 45.9913 108.02 46.2517 108.709 46.2517C109.007 46.2622 109.304 46.2049 109.575 46.0845C109.846 45.9642 110.083 45.7842 110.266 45.5595V46.133H111.304V43.7895ZM113.106 45.4656C113.173 45.4648 113.24 45.4765 113.303 45.5002C113.363 45.5234 113.417 45.5569 113.464 45.5991C113.51 45.6417 113.547 45.692 113.573 45.7474C113.599 45.8051 113.613 45.8674 113.613 45.9303C113.613 45.9933 113.599 46.0555 113.573 46.1133C113.547 46.1687 113.51 46.219 113.464 46.2616C113.417 46.3038 113.363 46.3373 113.303 46.3605C113.241 46.3866 113.174 46.4001 113.106 46.4C113.007 46.3993 112.911 46.372 112.828 46.3212C112.746 46.2705 112.68 46.1983 112.639 46.1133C112.613 46.0555 112.599 45.9932 112.599 45.9303C112.599 45.8674 112.613 45.8052 112.639 45.7474C112.665 45.692 112.702 45.6417 112.748 45.5991C112.794 45.5569 112.849 45.5234 112.908 45.5002C112.976 45.4746 113.049 45.4628 113.121 45.4656H113.106ZM113.106 46.3011C113.158 46.3014 113.209 46.2913 113.256 46.2715C113.301 46.2525 113.341 46.2257 113.376 46.1924C113.441 46.1249 113.477 46.0367 113.477 45.9452C113.477 45.8536 113.441 45.7654 113.376 45.6979C113.342 45.6646 113.301 45.6377 113.256 45.6188C113.209 45.5991 113.158 45.589 113.106 45.5892C113.054 45.5894 113.003 45.5995 112.955 45.6188C112.909 45.6371 112.866 45.6639 112.831 45.6979C112.766 45.7654 112.73 45.8536 112.73 45.9452C112.73 46.0367 112.766 46.1249 112.831 46.1924C112.866 46.2263 112.909 46.2532 112.955 46.2715C113.008 46.293 113.064 46.3031 113.121 46.3011H113.106ZM113.137 45.7128C113.185 45.7105 113.233 45.7245 113.272 45.7523C113.288 45.7649 113.3 45.7808 113.308 45.7989C113.317 45.8169 113.32 45.8366 113.319 45.8562C113.319 45.8726 113.317 45.889 113.31 45.9043C113.304 45.9196 113.294 45.9335 113.282 45.9452C113.252 45.9712 113.214 45.9869 113.173 45.9897L113.324 46.1528H113.204L113.064 45.9897H113.018V46.1528H112.919V45.7177L113.137 45.7128ZM113.023 45.7968V45.9155H113.137C113.157 45.9213 113.179 45.9213 113.199 45.9155C113.203 45.9086 113.205 45.901 113.205 45.8932C113.205 45.8855 113.203 45.8779 113.199 45.871C113.203 45.8641 113.205 45.8565 113.205 45.8487C113.205 45.841 113.203 45.8334 113.199 45.8265C113.179 45.8207 113.157 45.8207 113.137 45.8265L113.023 45.7968ZM107.312 43.7895C107.329 43.5112 107.432 43.2439 107.606 43.0203C107.781 42.7967 108.021 42.6267 108.296 42.5312C108.57 42.4357 108.869 42.4188 109.154 42.4827C109.438 42.5465 109.697 42.6883 109.899 42.8906C110.1 43.0929 110.235 43.3469 110.287 43.6212C110.338 43.8955 110.305 44.1783 110.19 44.4346C110.075 44.6909 109.884 44.9097 109.64 45.0638C109.396 45.218 109.11 45.301 108.818 45.3024C108.612 45.3049 108.408 45.2668 108.219 45.1906C108.029 45.1144 107.859 45.0017 107.717 44.8596C107.576 44.7175 107.467 44.5491 107.397 44.3649C107.327 44.1807 107.298 43.9848 107.312 43.7895V43.7895ZM70.8524 43.7895V41.4261H69.7726V41.9997C69.5892 41.7749 69.3524 41.595 69.0816 41.4746C68.8108 41.3543 68.5138 41.297 68.2152 41.3075C67.5267 41.3075 66.8665 41.5679 66.3797 42.0315C65.8929 42.4951 65.6194 43.1239 65.6194 43.7796C65.6194 44.4352 65.8929 45.064 66.3797 45.5276C66.8665 45.9913 67.5267 46.2517 68.2152 46.2517C68.5138 46.2622 68.8108 46.2049 69.0816 46.0845C69.3524 45.9642 69.5892 45.7842 69.7726 45.5595V46.133H70.8524V43.7895ZM66.8342 43.7895C66.8515 43.5112 66.9537 43.2439 67.1285 43.0203C67.3032 42.7967 67.5428 42.6267 67.8177 42.5312C68.0926 42.4357 68.3909 42.4188 68.6758 42.4827C68.9606 42.5465 69.2196 42.6883 69.421 42.8906C69.6223 43.0929 69.757 43.3469 69.8087 43.6212C69.8604 43.8955 69.8267 44.1783 69.7118 44.4346C69.5969 44.6909 69.4058 44.9097 69.162 45.0638C68.9182 45.218 68.6324 45.301 68.3398 45.3024C68.1333 45.3063 67.9283 45.2692 67.7377 45.1936C67.5471 45.1181 67.3751 45.0056 67.2326 44.8633C67.0901 44.7211 66.9801 44.5521 66.9098 44.3673C66.8394 44.1824 66.8101 43.9857 66.8239 43.7895H66.8342Z" fill="white"/><path d="M92.1734 5.40692H75.8203V33.3963H92.1734V5.40692Z" fill="#FF5F00"/><path d="M76.859 19.4027C76.856 16.7067 77.4972 14.0454 78.7339 11.6204C79.9706 9.19531 81.7705 7.07004 83.9973 5.4055C81.2402 3.34188 77.9291 2.05863 74.4424 1.70243C70.9557 1.34623 67.4342 1.93144 64.2802 3.39118C61.1262 4.85091 58.4671 7.12629 56.6067 9.95724C54.7463 12.7882 53.7598 16.0605 53.7598 19.4002C53.7598 22.7399 54.7463 26.0122 56.6067 28.8432C58.4671 31.6741 61.1262 33.9495 64.2802 35.4092C67.4342 36.869 70.9557 37.4542 74.4424 37.098C77.9291 36.7418 81.2402 35.4585 83.9973 33.3949C81.7712 31.7309 79.9717 29.6064 78.735 27.1823C77.4983 24.7581 76.8568 22.0978 76.859 19.4027V19.4027Z" fill="#EB001B"/><path d="M114.238 19.4038C114.238 22.7438 113.251 26.0163 111.391 28.8473C109.53 31.6784 106.87 33.9537 103.716 35.4133C100.562 36.8728 97.0399 37.4576 93.553 37.1009C90.0661 36.7442 86.755 35.4603 83.998 33.3961C86.2233 31.7305 88.0222 29.6055 89.2593 27.1812C90.4963 24.7569 91.1391 22.0967 91.1391 19.4013C91.1391 16.706 90.4963 14.0458 89.2593 11.6215C88.0222 9.19721 86.2233 7.07215 83.998 5.40664C86.755 3.34238 90.0661 2.05851 93.553 1.70179C97.0399 1.34508 100.562 1.92991 103.716 3.38944C106.87 4.84897 109.53 7.12431 111.391 9.95536C113.251 12.7864 114.238 16.0589 114.238 19.3989V19.4038Z" fill="#F79E1B"/><path d="M112.452 30.4294V29.8559H112.696V29.7372H112.078V29.8559H112.343V30.4294H112.452ZM113.651 30.4294V29.7372H113.464L113.246 30.2317L113.028 29.7372H112.862V30.4294H112.997V29.9103L113.199 30.3602H113.34L113.542 29.9103V30.4344L113.651 30.4294Z" fill="#F79E1B"/></svg>