<svg width="100" height="30" viewBox="0 0 100 30" fill="none" xmlns="http://www.w3.org/2000/svg"><path d="M26.106 6.33C26.1228 6.33077 26.1396 6.33311 26.156 6.337C26.376 6.351 26.538 6.357 26.638 6.357C27.401 6.357 27.976 6.164 28.362 5.777C28.749 5.389 28.942 4.81 28.942 4.04C28.942 3.346 28.764 2.814 28.409 2.445C28.054 2.077 27.543 1.892 26.876 1.892H26.106V6.33ZM23.026 10.788V10.079L23.896 10.001L24.162 9.774V7.16C22.721 6.924 22 6.785 22 6.739C22 6.694 22.72 6.558 24.162 6.329V2.035L23.94 1.83L22.968 1.759V1.05H26.949C28.355 1.05 29.377 1.284 30.015 1.752C30.654 2.22 30.973 2.962 30.973 3.977C30.973 4.998 30.634 5.791 29.958 6.355C29.281 6.92 28.333 7.202 27.115 7.202C26.999 7.202 26.858 7.199 26.69 7.192C26.4956 7.18344 26.3012 7.17277 26.107 7.16V9.775L26.33 10.002L27.38 10.08V10.789H23.026V10.788ZM36.572 6.315V6.16C36.572 5.57 36.462 5.117 36.24 4.803C36.02 4.489 35.703 4.332 35.29 4.332C34.84 4.332 34.477 4.508 34.203 4.86C33.93 5.212 33.781 5.697 33.757 6.316H36.572V6.315ZM38.508 8.988V10.065C38.0272 10.3389 37.5147 10.5532 36.982 10.703C36.4806 10.8429 35.9626 10.9142 35.442 10.915C34.342 10.915 33.461 10.582 32.796 9.916C32.132 9.25 31.799 8.369 31.799 7.272C31.799 6.172 32.139 5.272 32.818 4.575C33.497 3.878 34.371 3.53 35.442 3.53C36.411 3.53 37.164 3.817 37.702 4.391C38.239 4.965 38.508 5.772 38.508 6.811V7.088H33.685V7.13C33.685 7.957 33.896 8.607 34.319 9.08C34.741 9.552 35.322 9.788 36.061 9.788C36.449 9.788 36.845 9.722 37.248 9.59C37.6901 9.43938 38.113 9.23733 38.508 8.988ZM39.4 10.788V10.136L40.185 10.079L40.394 9.859V4.85H39.328V4.268L41.495 3.588H42.208L42.143 5.068C42.6682 4.52347 43.2442 4.03024 43.863 3.595C44.1312 3.53952 44.4086 3.54774 44.673 3.619C44.833 3.659 44.998 3.722 45.166 3.807L44.979 5.813H44.209C44.1131 5.64766 43.9751 5.51068 43.809 5.416C43.6539 5.33547 43.4826 5.29135 43.3079 5.28702C43.1332 5.28269 42.9599 5.31825 42.801 5.391C42.5954 5.47526 42.3971 5.57626 42.208 5.693V9.86L42.424 10.08L43.474 10.137V10.789H39.4V10.788ZM45.634 10.788V10.122L46.375 10.051L46.584 9.817V4.777H45.634V4.224L46.584 3.792C46.584 3.088 46.707 2.474 46.954 1.949C47.2103 1.41417 47.5985 0.953369 48.082 0.61C48.351 0.417 48.638 0.267 48.942 0.16C49.2388 0.0549168 49.5512 0.000819489 49.866 0C50.288 0 50.626 0.097 50.878 0.29C50.9987 0.378745 51.096 0.495442 51.1617 0.630078C51.2273 0.764713 51.2594 0.913269 51.255 1.063C51.255 1.16117 51.2355 1.25837 51.1978 1.34899C51.16 1.43961 51.1047 1.52186 51.035 1.591C50.89 1.745 50.677 1.869 50.399 1.963L48.966 0.716C48.775 0.91 48.631 1.191 48.535 1.559C48.439 1.928 48.391 2.382 48.391 2.92V3.905H50.399V4.777H48.39V9.831L48.627 10.051L49.613 10.121V10.788H45.633H45.634ZM55.524 6.315V6.16C55.524 5.57 55.414 5.117 55.193 4.803C54.972 4.489 54.655 4.332 54.243 4.332C53.791 4.332 53.429 4.508 53.156 4.86C52.882 5.212 52.733 5.697 52.709 6.316H55.524V6.315ZM57.46 8.988V10.065C56.9792 10.3389 56.4667 10.5532 55.934 10.703C55.4326 10.8429 54.9146 10.9142 54.394 10.915C53.294 10.915 52.414 10.582 51.748 9.916C51.084 9.25 50.752 8.369 50.752 7.272C50.752 6.172 51.091 5.272 51.77 4.575C52.45 3.878 53.324 3.53 54.394 3.53C55.363 3.53 56.116 3.817 56.654 4.391C57.191 4.965 57.46 5.772 57.46 6.811V7.088H52.637V7.13C52.637 7.957 52.849 8.607 53.271 9.08C53.693 9.552 54.274 9.788 55.013 9.788C55.401 9.788 55.797 9.722 56.2 9.59C56.6421 9.43938 57.065 9.23733 57.46 8.988ZM64.766 10.136C64.281 10.396 63.811 10.588 63.356 10.713C62.9079 10.8373 62.445 10.9005 61.98 10.901C60.925 10.901 60.072 10.573 59.421 9.916C58.771 9.259 58.446 8.399 58.446 7.336C58.446 6.235 58.802 5.333 59.515 4.628C60.228 3.924 61.138 3.572 62.247 3.572C62.971 3.572 63.557 3.72 64.007 4.015C64.455 4.311 64.68 4.69 64.68 5.153C64.6839 5.28625 64.6592 5.41878 64.6074 5.54163C64.5557 5.66447 64.4781 5.77476 64.38 5.865C64.182 6.052 63.929 6.145 63.621 6.145C63.3081 6.15192 63.0018 6.05485 62.75 5.869V4.33C62.6801 4.31286 62.6093 4.29951 62.538 4.29C62.4842 4.28352 62.4301 4.28018 62.376 4.28C61.829 4.28 61.371 4.534 61.001 5.042C60.631 5.55 60.447 6.196 60.447 6.981C60.447 7.841 60.651 8.519 61.059 9.015C61.467 9.511 62.021 9.759 62.722 9.759C63.038 9.759 63.37 9.704 63.715 9.593C64.0833 9.47098 64.4358 9.30548 64.765 9.1V10.135L64.766 10.136ZM66.184 4.777H65.227V4.224L66.313 3.614L67.083 2.105H68.013V3.905H70.193V4.777H68.013V8.392C68.013 8.936 68.101 9.306 68.279 9.505C68.456 9.703 68.775 9.803 69.236 9.803C69.418 9.803 69.587 9.794 69.743 9.778C69.8943 9.76178 70.0446 9.73674 70.193 9.703V10.398C69.8 10.541 69.3973 10.656 68.988 10.742C68.6435 10.8159 68.2924 10.8551 67.94 10.859C67.681 10.859 67.452 10.833 67.253 10.781C67.0617 10.7325 66.8803 10.6509 66.717 10.54C66.5327 10.427 66.3881 10.2597 66.303 10.061C66.223 9.87 66.183 9.517 66.183 9.001V4.778L66.184 4.777ZM32.62 22.401V21.692L33.563 21.586L33.773 21.323V13.633L33.593 13.442L32.62 13.357V12.662H36.486V13.066L38.782 19.729L41.071 13.08V12.662H44.972V13.357L43.972 13.442L43.813 13.647V21.387L43.972 21.614L44.972 21.692V22.401H40.891V21.692L41.805 21.614L41.956 21.387V13.59L38.89 22.4H37.825L34.83 13.661V21.323L35.053 21.586L35.967 21.692V22.401H32.62ZM49.572 15.929C49.034 15.929 48.614 16.182 48.312 16.688C48.01 17.193 47.858 17.902 47.858 18.814C47.858 19.74 48.008 20.461 48.308 20.976C48.608 21.491 49.025 21.749 49.558 21.749C50.114 21.749 50.543 21.499 50.846 20.997C51.148 20.497 51.299 19.783 51.299 18.857C51.299 17.935 51.147 17.217 50.842 16.702C50.537 16.187 50.114 15.929 49.572 15.929ZM49.629 15.157C50.762 15.157 51.661 15.494 52.329 16.167C52.995 16.84 53.329 17.751 53.329 18.899C53.329 19.986 52.981 20.86 52.285 21.522C51.589 22.183 50.665 22.514 49.514 22.514C48.405 22.514 47.512 22.18 46.833 21.511C46.153 20.843 45.814 19.963 45.814 18.871C45.814 17.751 46.162 16.852 46.858 16.174C47.554 15.496 48.478 15.157 49.629 15.157ZM54.229 22.401V21.749L54.984 21.692L55.194 21.472V16.462H54.185V15.88L56.309 15.2H57.021V16.057C57.4867 15.7938 57.973 15.5688 58.475 15.384C58.883 15.242 59.238 15.171 59.541 15.171C60.213 15.171 60.714 15.37 61.045 15.766C61.376 16.163 61.542 16.768 61.542 17.581V21.472L61.736 21.692L62.513 21.749V22.401H58.907V21.749L59.541 21.692L59.742 21.472V18C59.742 17.461 59.637 17.066 59.426 16.813C59.214 16.56 58.878 16.433 58.418 16.433C58.24 16.433 58.035 16.455 57.802 16.498C57.5394 16.5476 57.2791 16.6089 57.022 16.682V21.473L57.223 21.693L57.871 21.75V22.402H54.229V22.401ZM68.013 17.928V17.772C68.013 17.182 67.903 16.729 67.682 16.415C67.461 16.101 67.144 15.944 66.732 15.944C66.28 15.944 65.918 16.12 65.645 16.472C65.371 16.824 65.222 17.309 65.198 17.928H68.013ZM69.949 20.6V21.678C69.4682 21.952 68.9557 22.1662 68.423 22.316C67.9216 22.4559 67.4035 22.5272 66.883 22.528C65.783 22.528 64.902 22.195 64.237 21.529C63.573 20.863 63.24 19.981 63.24 18.885C63.24 17.785 63.58 16.885 64.259 16.188C64.938 15.491 65.813 15.143 66.883 15.143C67.852 15.143 68.605 15.43 69.143 16.003C69.68 16.578 69.949 17.385 69.949 18.424V18.701H65.126V18.743C65.126 19.57 65.337 20.22 65.76 20.693C66.182 21.165 66.763 21.401 67.502 21.401C67.89 21.401 68.286 21.335 68.689 21.203C69.1312 21.0521 69.5541 20.8497 69.949 20.6ZM70.359 15.348H74.102V15.972L73.354 16.057L73.202 16.263L74.793 20.367L76.398 16.277L76.268 16.057L75.491 15.972V15.348H78.321V15.972L77.521 16.1L74.678 22.911C74.328 23.743 73.908 24.396 73.418 24.871C72.928 25.346 72.435 25.583 71.936 25.583C71.59 25.583 71.293 25.476 71.043 25.261C70.793 25.046 70.669 24.794 70.669 24.506C70.669 24.298 70.735 24.106 70.867 23.928C71.0175 23.7359 71.2111 23.5817 71.432 23.478L72.712 24.343C72.914 24.187 73.112 23.959 73.307 23.659C73.501 23.359 73.687 22.999 73.865 22.578L71.245 16.1L70.359 15.972V15.348Z" fill="#CB0E20"/><path d="M23.9718 29.5431L23.9658 28.7971C24.2298 28.9031 24.5008 28.9571 24.7808 28.9571C25.0138 28.9571 25.1748 28.8901 25.2628 28.7571C25.3508 28.6231 25.3948 28.3841 25.3948 28.0371V23.6461H26.4148V27.9261C26.4148 28.5431 26.2928 28.9861 26.0478 29.2581C25.8038 29.5291 25.4048 29.6651 24.8498 29.6651C24.5728 29.6651 24.2798 29.6241 23.9718 29.5431ZM29.8768 28.6611V27.9601C29.5598 28.4841 29.1488 28.7461 28.6428 28.7461C28.3188 28.7461 28.0628 28.6411 27.8768 28.4311C27.6898 28.2211 27.5968 27.9341 27.5968 27.5711V24.9411H28.5728V27.3231C28.5728 27.7451 28.7108 27.9571 28.9858 27.9571C29.2938 27.9571 29.5908 27.7321 29.8768 27.2821V24.9411H30.8538V28.6611H29.8768ZM31.9798 28.5431V27.8071C32.4638 28.0151 32.8768 28.1191 33.2198 28.1191C33.6208 28.1191 33.8208 27.9791 33.8208 27.6991C33.8208 27.5191 33.6558 27.3601 33.3258 27.2251L32.9958 27.0891C32.6378 26.9391 32.3808 26.7791 32.2268 26.6081C32.0719 26.4327 31.9897 26.2049 31.9968 25.9711C31.9968 25.6181 32.1268 25.3441 32.3888 25.1491C32.6508 24.9541 33.0168 24.8561 33.4888 24.8561C33.7828 24.8561 34.1338 24.9001 34.5408 24.9881V25.6931C34.1488 25.5531 33.8248 25.4831 33.5668 25.4831C33.1618 25.4831 32.9598 25.6121 32.9598 25.8691C32.9598 26.0391 33.1098 26.1821 33.4088 26.2991L33.6928 26.4111C34.1168 26.5761 34.4128 26.7431 34.5788 26.9131C34.7448 27.0831 34.8288 27.3001 34.8288 27.5671C34.8288 27.9171 34.6868 28.2011 34.4038 28.4191C34.1208 28.6371 33.7538 28.7461 33.2998 28.7461C32.8522 28.7441 32.4073 28.6757 31.9798 28.5431ZM37.7658 28.6411C37.5328 28.7111 37.3488 28.7461 37.2148 28.7461C36.3668 28.7461 35.9438 28.3391 35.9438 27.5261V25.5671H35.5378V24.9411H35.9438V24.3141L36.9208 24.1981V24.9411H37.6968V25.5671H36.9208V27.3941C36.9208 27.8501 37.1018 28.0791 37.4648 28.0791C37.5488 28.0791 37.6488 28.0631 37.7648 28.0311V28.6411H37.7658ZM40.5158 30.0001V24.9401H41.4938V25.6421C41.7438 25.1181 42.1388 24.8561 42.6778 24.8561C43.1138 24.8561 43.4568 25.0201 43.7068 25.3471C43.9568 25.6751 44.0808 26.1251 44.0808 26.6991C44.0808 27.3231 43.9408 27.8191 43.6588 28.1901C43.5296 28.3679 43.359 28.5115 43.1617 28.6084C42.9645 28.7053 42.7465 28.7525 42.5268 28.7461C42.1458 28.7461 41.8018 28.5931 41.4938 28.2861V30.0001H40.5158ZM41.4938 27.6891C41.7308 27.9591 41.9838 28.0951 42.2528 28.0951C42.4928 28.0951 42.6838 27.9761 42.8268 27.7381C42.9698 27.5001 43.0418 27.1821 43.0418 26.7841C43.0418 26.0231 42.8018 25.6421 42.3248 25.6421C42.0368 25.6421 41.7598 25.8321 41.4938 26.2151V27.6891ZM47.9458 28.5361C47.4818 28.6761 47.0418 28.7461 46.6258 28.7461C46.0208 28.7461 45.5438 28.5701 45.1938 28.2171C44.8438 27.8651 44.6688 27.3841 44.6688 26.7741C44.6688 26.1981 44.8288 25.7341 45.1488 25.3831C45.4688 25.0311 45.8918 24.8561 46.4188 24.8561C46.9488 24.8561 47.3358 25.0281 47.5798 25.3711C47.8238 25.7141 47.9458 26.2581 47.9458 27.0011H45.6998C45.7658 27.7111 46.1448 28.0651 46.8378 28.0651C47.1658 28.0651 47.5358 27.9871 47.9478 27.8311V28.5361H47.9458ZM45.6858 26.4351H46.9858C46.9858 25.8001 46.7858 25.4831 46.3878 25.4831C45.9838 25.4831 45.7488 25.8001 45.6848 26.4351H45.6858ZM48.9558 28.6611V24.9411H49.9328V25.6421C50.1868 25.1181 50.5718 24.8561 51.0888 24.8561C51.1498 24.8561 51.2108 24.8631 51.2698 24.8761V25.7711C51.1469 25.7222 51.0161 25.6958 50.8838 25.6931C50.4938 25.6931 50.1778 25.8951 49.9338 26.2991V28.6611H48.9558ZM52.1318 28.6611V25.5671H51.6328V24.9411H52.1318V24.6731C52.1318 23.7081 52.5768 23.2261 53.4688 23.2261C53.7568 23.2261 54.0538 23.2691 54.3588 23.3551V24.0321C54.1252 23.9224 53.8718 23.8612 53.6138 23.8521C53.2768 23.8521 53.1088 24.1141 53.1088 24.6361V24.9411H54.0258V25.5671H53.1088V28.6611H52.1318ZM57.7818 28.5361C57.3178 28.6761 56.8778 28.7461 56.4618 28.7461C55.8568 28.7461 55.3798 28.5701 55.0298 28.2171C54.6798 27.8651 54.5048 27.3841 54.5048 26.7741C54.5048 26.1981 54.6648 25.7341 54.9848 25.3831C55.3048 25.0311 55.7278 24.8561 56.2548 24.8561C56.7848 24.8561 57.1718 25.0281 57.4158 25.3711C57.6598 25.7141 57.7828 26.2581 57.7828 27.0011H55.5348C55.6008 27.7111 55.9798 28.0651 56.6738 28.0651C57.0008 28.0651 57.3708 27.9871 57.7828 27.8311V28.5361H57.7818ZM55.5218 26.4351H56.8218C56.8218 25.8001 56.6218 25.4831 56.2248 25.4831C55.8198 25.4831 55.5848 25.8001 55.5218 26.4351ZM61.4658 28.5801C61.0608 28.6901 60.6858 28.7461 60.3408 28.7461C59.7608 28.7461 59.3048 28.5721 58.9688 28.2231C58.6338 27.8731 58.4658 27.3991 58.4658 26.7981C58.4658 26.1901 58.6388 25.7141 58.9838 25.3711C59.3298 25.0281 59.8068 24.8561 60.4168 24.8561C60.7108 24.8561 61.0508 24.9041 61.4368 25.0021V25.7271C61.0358 25.5931 60.7158 25.5271 60.4758 25.5271C60.3391 25.5235 60.2035 25.553 60.0806 25.6131C59.9577 25.6732 59.8511 25.762 59.7698 25.8721C59.5908 26.1021 59.5018 26.4091 59.5018 26.7911C59.5018 27.1811 59.5988 27.4951 59.7918 27.7301C59.884 27.8445 60.0016 27.9359 60.1352 27.997C60.2689 28.0581 60.415 28.0872 60.5618 28.0821C60.8538 28.0821 61.1558 28.0161 61.4658 27.8851V28.5801ZM64.2588 28.6411C64.0248 28.7111 63.8418 28.7461 63.7068 28.7461C62.8598 28.7461 62.4368 28.3391 62.4368 27.5261V25.5671H62.0308V24.9411H62.4368V24.3141L63.4138 24.1981V24.9411H64.1888V25.5671H63.4138V27.3941C63.4138 27.8501 63.5948 28.0791 63.9578 28.0791C64.0418 28.0791 64.1418 28.0631 64.2578 28.0311V28.6411H64.2588Z" fill="#8A8C8F"/></svg>