<svg width="100" height="30" viewBox="0 0 100 30" fill="none" xmlns="http://www.w3.org/2000/svg"><g clip-path="url(#clip0_3812_58122)"><path d="M9.02291 14.1395C9.02291 12.1199 9.02291 10.1013 9.02291 8.08174C9.02291 7.49049 9.13131 7.38822 9.74646 7.38736C11.4941 7.3865 13.2417 7.38736 14.9893 7.38736C15.5507 7.38736 15.6538 7.48018 15.6036 8.01127C15.4388 9.74979 15.3859 11.4943 15.2784 13.2346C15.1559 15.2249 15.1735 17.2109 15.1814 19.1995C15.1858 20.235 15.5375 21.1863 16.1887 22.0088C17.0665 23.1165 18.2898 23.3245 19.6152 23.1466C20.1537 23.0744 20.6948 22.9721 21.1513 22.6086C21.7101 22.1635 22.0256 21.5954 22.2018 20.9337C22.7941 18.7071 22.7817 16.4409 22.6954 14.1644C22.616 12.0615 22.6011 9.95689 22.5641 7.85229C22.5579 7.49049 22.6592 7.3908 23.0311 7.38994C24.8228 7.38564 26.6145 7.38564 28.4062 7.38994C28.8133 7.3908 28.9094 7.50252 28.9103 7.91674C28.912 8.5183 28.8689 9.11814 28.8266 9.71799C28.6415 12.3494 28.7534 14.9851 28.7278 17.6191C28.712 19.2081 28.7278 20.7979 28.7552 22.3869C28.7737 23.4164 28.8486 24.446 28.8803 25.4755C28.8979 26.0367 28.8186 26.1003 28.2634 26.1003C26.633 26.0994 25.0035 26.0985 23.3731 26.0951C22.7615 26.0942 22.735 26.065 22.7394 25.4583C22.743 25.0286 22.743 24.5989 22.7579 24.1701C22.7641 23.9853 22.7421 23.8212 22.5623 23.7284C22.3772 23.6338 22.2715 23.7756 22.1498 23.8771C21.3893 24.5121 20.6437 25.161 19.7606 25.6456C19.075 26.0221 18.3506 26.2421 17.5847 26.3529C16.4426 26.5171 15.2942 26.5007 14.1706 26.2592C12.608 25.9241 11.1424 25.3792 10.1712 24.0266C9.77642 23.4766 9.4997 22.8759 9.32344 22.2133C9.05728 21.2087 9 20.1929 9 19.166C9.00088 17.4902 9 15.8153 9 14.1395H9.02291Z" fill="#FF8013"/><path d="M30.8138 16.743C30.8138 13.8083 30.8138 10.8744 30.8138 7.93961C30.8138 7.42484 30.8261 7.41281 31.3619 7.41195C32.1692 7.41109 32.9765 7.41023 33.7837 7.41195C34.1686 7.41195 34.3607 7.6076 34.3601 7.9989C34.3601 8.25672 34.3539 8.51453 34.361 8.77148C34.3645 8.89352 34.3354 9.04391 34.517 9.08344C34.6571 9.11438 34.7638 9.06969 34.8616 8.95711C36.2205 7.40164 37.9223 6.99602 39.9132 7.5125C41.3365 7.88203 42.3235 8.75086 43.0726 9.95484C44.1531 11.6942 44.3258 13.5909 44.1593 15.5502C44.1117 16.1105 44.0271 16.6743 43.8843 17.2183C43.4965 18.7016 42.7501 19.9949 41.4643 20.9024C40.115 21.8546 38.6027 22.0368 36.9961 21.5977C36.1641 21.3699 35.5155 20.887 34.9162 20.3206C34.814 20.2244 34.7514 20.1238 34.5972 20.1763C34.4509 20.2261 34.4227 20.3567 34.4033 20.4822C34.391 20.5664 34.4033 20.6532 34.4033 20.7391C34.4033 22.3711 34.4042 24.003 34.4033 25.635C34.4033 26.081 34.391 26.093 33.9327 26.0939C33.0664 26.0956 32.2009 26.0948 31.3346 26.0939C30.8279 26.0939 30.812 26.0767 30.812 25.5895C30.812 22.6409 30.812 19.6916 30.812 16.743H30.8138ZM40.5345 14.6023C40.5072 14.0016 40.5028 13.4052 40.345 12.8415C40.0172 11.671 39.3985 10.6432 37.9126 10.4868C36.3721 10.3252 35.3789 10.84 34.8625 12.1325C34.2306 13.7146 34.1953 15.3517 34.8448 16.9424C35.1762 17.7554 35.7693 18.3724 36.7211 18.5641C37.1018 18.6405 37.479 18.6414 37.8589 18.6225C38.823 18.5744 39.4593 18.0527 39.9361 17.269C40.4446 16.4337 40.4913 15.5141 40.5354 14.6015L40.5345 14.6023Z" fill="white"/><path d="M57.6319 15.1715C57.6319 16.2457 57.6539 17.3199 57.6257 18.3933C57.6028 19.2638 57.7235 20.094 58.0848 20.8949C58.2823 21.3315 58.2012 21.4423 57.7403 21.4449C56.8008 21.4492 55.8605 21.4406 54.921 21.4501C54.6857 21.4526 54.5508 21.3856 54.4495 21.163C54.3226 20.8872 54.2468 20.601 54.1587 20.3148C54.0741 20.0416 53.8608 19.9977 53.6784 20.2134C52.916 21.1183 51.8946 21.5403 50.7472 21.7534C49.9399 21.903 49.1564 21.8755 48.3518 21.6873C47.0263 21.3762 46.1406 20.6079 45.7379 19.3652C45.2831 17.9619 45.269 16.5499 46.0172 15.2187C46.2993 14.7169 46.7549 14.3576 47.2696 14.0655C47.912 13.7011 48.6188 13.5352 49.323 13.3479C50.2342 13.1047 51.1896 13.1442 52.1 12.9319C52.6649 12.8005 53.2818 12.7394 53.7163 12.2676C54.0917 11.8603 54.1261 11.1719 53.7568 10.7508C53.525 10.487 53.2307 10.2928 52.8799 10.2266C52.1828 10.096 51.4707 10.0444 50.7824 10.2266C50.0483 10.42 49.3979 10.8677 49.4464 11.7366C49.4587 11.9634 49.3891 12.0287 49.1564 12.0262C48.217 12.0141 47.2766 12.0124 46.3371 12.0262C46.049 12.0305 45.9379 11.9162 45.9406 11.654C45.9511 10.5549 46.3045 9.56405 47.0995 8.79147C47.6855 8.22085 48.4011 7.80921 49.234 7.60467C50.1364 7.38296 51.0398 7.23772 51.973 7.27897C53.3285 7.33827 54.6654 7.50069 55.8657 8.16327C57.0167 8.79835 57.6239 9.78663 57.631 11.0929C57.638 12.4533 57.6327 13.8137 57.6327 15.1741L57.6319 15.1715ZM54.0511 15.8555C54.0511 15.5977 54.0697 15.3382 54.0459 15.083C54.0194 14.7925 53.8802 14.7358 53.6105 14.863C53.4933 14.918 53.3699 14.9669 53.2439 14.9996C52.3961 15.2205 51.55 15.4448 50.6908 15.6226C50.0386 15.7567 49.3715 16.0231 49.1335 16.6633C48.655 17.9498 49.3477 19.0017 50.7287 19.049C51.1129 19.0619 51.5007 19.0515 51.8629 18.9433C52.5996 18.7241 53.2218 18.3546 53.629 17.6637C53.9665 17.0905 54.0608 16.4915 54.0503 15.8555H54.0511Z" fill="white"/><path d="M90.9626 14.9206C90.9626 16.1375 90.9661 17.3543 90.9617 18.5712C90.959 19.3902 91.0578 20.1826 91.4631 20.9216C91.6614 21.2826 91.5451 21.4424 91.1159 21.445C90.1615 21.4501 89.207 21.4286 88.2535 21.4553C87.8983 21.4656 87.8022 21.237 87.7035 21.0153C87.6066 20.797 87.5678 20.5521 87.5185 20.3158C87.4955 20.2066 87.4594 20.1233 87.3466 20.0949C87.2232 20.064 87.1228 20.1018 87.032 20.1954C85.3346 21.9331 83.2882 22.227 81.048 21.4862C80.0292 21.1494 79.3841 20.3544 79.0633 19.3704C78.6834 18.2026 78.6649 17.0046 79.0562 15.8315C79.3277 15.0186 79.9014 14.4359 80.6796 14.032C81.9346 13.3797 83.305 13.1761 84.6895 13.0463C85.2941 12.9896 85.8696 12.8349 86.438 12.6579C87.0937 12.4542 87.477 11.9635 87.3378 11.3542C87.1897 10.7079 86.8654 10.3668 86.0643 10.2112C85.3981 10.0823 84.73 10.1072 84.0611 10.2172C83.483 10.3126 82.8811 10.8635 82.7639 11.435C82.6834 11.8251 82.4395 12.0202 82.0324 12.0202C81.2542 12.0202 80.476 12.0082 79.6978 12.0262C79.3814 12.0331 79.3083 11.9145 79.2995 11.624C79.2722 10.7561 79.5083 9.95427 80.0213 9.27107C80.6364 8.4538 81.4816 7.90896 82.4924 7.61935C84.4286 7.06419 86.3631 7.18021 88.257 7.74482C89.5701 8.13583 90.5466 8.9574 90.9 10.3324C90.9467 10.5154 90.9573 10.6994 90.9573 10.8858C90.9573 12.2316 90.9573 13.5774 90.9573 14.9232H90.9617L90.9626 14.9206ZM87.4189 15.7619C87.4189 15.5471 87.4312 15.3314 87.4162 15.1183C87.3951 14.8158 87.2453 14.7479 86.9624 14.863C86.7218 14.961 86.4697 15.0383 86.2168 15.1019C85.3954 15.3056 84.5599 15.4629 83.7518 15.7069C82.9939 15.9355 82.4016 16.3463 82.3479 17.2435C82.288 18.2524 82.8749 18.9442 83.8523 19.0319C84.5934 19.098 85.3223 19.0361 85.9868 18.6228C86.4926 18.3083 86.8716 17.919 87.1131 17.3776C87.3457 16.8559 87.4444 16.324 87.4171 15.7619H87.4189Z" fill="white"/><path d="M66.7816 16.9434C67.2813 16.9434 67.7801 16.9426 68.2798 16.9434C68.4825 16.9434 68.6279 16.9804 68.6958 17.2227C69.0192 18.382 69.5894 18.8401 70.8109 18.9475C71.2647 18.9879 71.7213 18.9819 72.176 18.9535C72.6087 18.9269 72.9991 18.7576 73.3473 18.5281C73.9642 18.1216 73.9809 17.4393 73.4424 16.9512C73.2309 16.7595 72.9974 16.6341 72.733 16.5576C72.1901 16.4003 71.656 16.2173 71.0938 16.115C69.8273 15.8847 68.5847 15.5384 67.432 14.9806C65.9153 14.2467 65.2005 13.1115 65.3556 11.3781C65.4702 10.0934 66.0757 9.05782 67.1605 8.30759C67.8779 7.81173 68.7019 7.57797 69.5541 7.40868C71.0779 7.10704 72.5832 7.24282 74.0153 7.75329C75.7523 8.3729 76.868 9.56829 77.0505 11.4469C77.091 11.8611 77.0267 11.9264 76.6063 11.9273C75.725 11.929 74.8437 11.9221 73.9624 11.9333C73.6478 11.9376 73.4653 11.8319 73.4195 11.5139C73.3155 10.792 72.77 10.4337 72.1496 10.2412C71.4295 10.0169 70.6699 10.0641 69.9305 10.224C69.6722 10.2799 69.451 10.4328 69.2704 10.6167C68.8059 11.0894 68.9161 11.7408 69.5207 12.0295C70.0538 12.2848 70.5897 12.5306 71.1881 12.6388C72.0191 12.7884 72.837 13.0144 73.6522 13.2258C74.5211 13.4518 75.3892 13.7388 76.1454 14.2338C77.0214 14.807 77.4735 15.6363 77.5299 16.6676C77.5872 17.7272 77.4585 18.743 76.8328 19.6531C76.4336 20.2331 75.9127 20.6998 75.2755 20.9816C72.9339 22.0146 70.5148 22.092 68.078 21.3581C66.9305 21.0126 66.021 20.2916 65.4402 19.2603C65.0807 18.6218 64.9573 17.8922 64.9159 17.1583C64.9027 16.922 65.049 16.9452 65.1944 16.9452C65.7231 16.9434 66.2519 16.9452 66.7807 16.9443L66.7816 16.9434Z" fill="white"/><path d="M61.6763 21.4455C61.2356 21.4455 60.7959 21.4473 60.3552 21.4455C59.8758 21.443 59.8035 21.3837 59.8335 20.9273C59.9348 19.3865 60.0106 17.8456 60.0265 16.3013C60.0503 13.9819 60.0406 11.6633 59.9912 9.34555C59.9798 8.80242 59.9331 8.26016 59.9154 7.71703C59.9022 7.29422 60.0001 7.22289 60.3958 7.34664C61.2145 7.60274 62.0455 7.5125 62.8757 7.4386C62.9163 7.43516 62.955 7.40766 62.9947 7.39047C63.3393 7.2375 63.5358 7.35524 63.5252 7.72563C63.4891 8.95453 63.371 10.18 63.3675 11.4115C63.3622 13.4869 63.3322 15.5631 63.4054 17.6377C63.4442 18.7377 63.5332 19.8359 63.5631 20.9377C63.5755 21.3845 63.5349 21.4421 63.0864 21.4464C62.6166 21.4516 62.1469 21.4473 61.6772 21.4473L61.6763 21.4455Z" fill="white"/><path d="M61.7014 6.33767C60.6368 6.33767 59.8639 5.58314 59.8507 4.53384C59.8384 3.53439 60.7496 2.69994 61.7147 2.71454C62.7969 2.73087 63.5433 3.60228 63.5777 4.4608C63.6191 5.48603 62.7784 6.38665 61.7014 6.33767Z" fill="#FF8013"/></g><defs><clipPath id="clip0_3812_58122"><rect width="83" height="24" fill="white" transform="translate(9 2.65234)"/></clipPath></defs></svg>