<svg width="176" height="49" viewBox="0 0 176 49" fill="none" xmlns="http://www.w3.org/2000/svg"><path d="M71.9229 5.73799L54.3897 42.8727H42.9901L34.3165 13.2199C33.8208 11.4045 33.3252 10.7443 31.7763 9.97409C29.1742 8.70876 24.8993 7.55346 21.1201 6.83828L21.3679 5.73799H39.7685C42.1227 5.73799 44.2292 7.11335 44.7868 9.53398L49.3095 30.9896L60.5852 5.73799H71.9229ZM116.716 30.7145C116.778 20.9219 101.475 20.3718 101.537 16.0257C101.599 14.7053 103.024 13.275 106.122 12.9449C107.671 12.7798 111.946 12.6148 116.778 14.5953L118.699 6.72825C116.097 5.90303 112.751 5.07782 108.6 5.07782C97.9438 5.07782 90.3854 10.1391 90.3234 17.346C90.2615 22.6824 95.7135 25.6532 99.8025 27.4686C104.015 29.2841 105.44 30.4394 105.44 32.0899C105.378 34.5655 102.095 35.6658 98.9971 35.7208C93.5451 35.7758 90.3854 34.4005 87.9072 33.3552L85.9247 41.4973C88.4648 42.5426 93.1114 43.4228 97.9438 43.4778C109.22 43.4228 116.654 38.4165 116.716 30.7145ZM144.905 42.8176H154.88L146.145 5.68298H136.913C134.869 5.68298 133.072 6.78326 132.329 8.37868L116.097 42.7626H127.434L129.665 37.2062H143.542L144.905 42.8176ZM132.824 29.6692L138.524 15.7506L141.808 29.6692H132.824ZM87.3496 5.73799L78.4281 42.8176H67.5861L76.5695 5.73799H87.3496Z" fill="white"/></svg>